<!DOCTYPE svg PUBLIC "-//W3C//DTD SVG 1.1//EN" "http://www.w3.org/Graphics/SVG/1.1/DTD/svg11.dtd">

<!-- Uploaded to: SVG Repo, www.svgrepo.com, Transformed by: SVG Repo Mixer Tools -->
<svg height="5rem" width="5rem" version="1.1" id="Layer_1" xmlns="http://www.w3.org/2000/svg" xmlns:xlink="http://www.w3.org/1999/xlink" viewBox="0 0 512 512" xml:space="preserve" fill="#006d77" stroke="#006d77">

<g id="SVGRepo_bgCarrier" stroke-width="0"/>

<g id="SVGRepo_tracerCarrier" stroke-linecap="round" stroke-linejoin="round"/>

<g id="SVGRepo_iconCarrier"> <g> <path style="fill:#83c5be;" d="M453.732,432.365c-1.486,0-2.99-0.395-4.349-1.228l-123.063-75.23 c-3.937-2.406-5.177-7.549-2.77-11.485s7.548-5.179,11.484-2.77l123.063,75.23c3.937,2.406,5.177,7.548,2.77,11.484 C459.293,430.943,456.546,432.365,453.732,432.365z"/> <path style="fill:#83c5be;" d="M185.471,437.134c-2.48,0-4.933-1.099-6.581-3.202c-2.846-3.631-2.209-8.883,1.422-11.728 l102.075-79.986c3.631-2.846,8.883-2.209,11.728,1.422c2.846,3.631,2.209,8.883-1.422,11.728l-102.075,79.986 C189.089,436.552,187.273,437.134,185.471,437.134z"/> <path style="fill:#83c5be;" d="M144.123,435.105c-2.025,0-4.057-0.732-5.663-2.213l-40.399-37.268 c-3.391-3.129-3.605-8.413-0.476-11.805c3.129-3.391,8.414-3.603,11.805-0.476l40.399,37.268c3.391,3.129,3.605,8.413,0.476,11.805 C148.619,434.201,146.374,435.105,144.123,435.105z"/> <path style="fill:#83c5be;" d="M8.356,453.718c-2.197,0-4.389-0.86-6.03-2.571c-3.195-3.329-3.084-8.618,0.245-11.813 l57.875-55.528c3.329-3.194,8.617-3.084,11.812,0.245c3.195,3.329,3.084,8.618-0.245,11.812l-57.876,55.528 C12.519,452.945,10.436,453.718,8.356,453.718z"/> </g> <g> <path style="fill:#ffddd2;" d="M402.614,221.177c-2.204,0-4.404-0.867-6.046-2.588c-3.185-3.338-3.06-8.627,0.278-11.811 l54.416-51.909c3.338-3.184,8.627-3.06,11.811,0.278c3.185,3.338,3.06,8.627-0.278,11.812l-54.416,51.908 C406.763,220.411,404.686,221.177,402.614,221.177z"/> <path style="fill:#ffddd2;" d="M364.516,217.194c-2.731,0-5.409-1.339-7.01-3.798l-52.528-80.723 c-2.516-3.867-1.421-9.043,2.445-11.559c3.867-2.516,9.043-1.421,11.559,2.445l52.528,80.723c2.516,3.867,1.421,9.043-2.445,11.559 C367.658,216.756,366.078,217.194,364.516,217.194z"/> <path style="fill:#ffddd2;" d="M201.495,259.903c-1.591,0-3.198-0.453-4.62-1.4c-3.842-2.555-4.883-7.742-2.327-11.582 l82.215-123.549c2.556-3.842,7.743-4.884,11.583-2.327c3.842,2.555,4.883,7.742,2.327,11.582l-82.215,123.549 C206.848,258.594,204.197,259.903,201.495,259.903z"/> <path style="fill:#ffddd2;" d="M171.53,258.531c-2.769,0-5.478-1.376-7.068-3.889l-56.821-89.815 c-2.467-3.9-1.305-9.059,2.593-11.527c3.9-2.466,9.06-1.304,11.527,2.593l56.821,89.815c2.467,3.9,1.305,9.059-2.593,11.527 C174.603,258.112,173.057,258.531,171.53,258.531z"/> <path style="fill:#ffddd2;" d="M8.347,282.329c-1.647,0-3.311-0.486-4.764-1.498c-3.787-2.635-4.721-7.842-2.085-11.629 l79.546-114.299c2.635-3.787,7.842-4.721,11.629-2.085c3.787,2.635,4.721,7.842,2.085,11.629l-79.547,114.3 C13.588,281.079,10.989,282.329,8.347,282.329z"/> <path style="fill:#ffddd2;" d="M101.923,100.264c-19.744,0-35.806,16.062-35.806,35.806c0,19.744,16.062,35.805,35.806,35.805 s35.805-16.062,35.805-35.805S121.666,100.264,101.923,100.264z"/> </g> <path style="fill:#e29578;" d="M101.923,100.264c-3.889,0-7.63,0.632-11.139,1.783c14.305,4.695,24.666,18.168,24.666,34.023 c0,15.855-10.362,29.328-24.666,34.023c3.509,1.152,7.25,1.783,11.139,1.783c19.744,0,35.805-16.062,35.805-35.805 S121.666,100.264,101.923,100.264z"/> <path style="fill:#ffddd2;" d="M185.466,238.016c-19.744,0-35.806,16.062-35.806,35.805c0,19.744,16.062,35.806,35.806,35.806 s35.806-16.063,35.806-35.806C221.271,254.078,205.208,238.016,185.466,238.016z"/> <path style="fill:#e29578;" d="M185.466,238.016c-3.683,0-7.236,0.56-10.582,1.597c14.593,4.524,25.224,18.148,25.224,34.209 s-10.63,29.686-25.224,34.209c3.346,1.037,6.9,1.597,10.582,1.597c19.744,0,35.806-16.063,35.806-35.806 C221.271,254.078,205.208,238.016,185.466,238.016z"/> <path style="fill:#ffddd2;" d="M297.97,68.703c-19.744,0-35.806,16.062-35.806,35.805c0,19.744,16.062,35.806,35.806,35.806 c19.744,0,35.805-16.062,35.805-35.806C333.775,84.765,317.713,68.703,297.97,68.703z"/> <path style="fill:#e29578;" d="M297.97,68.703c-3.889,0-7.63,0.632-11.139,1.783c14.305,4.695,24.666,18.168,24.666,34.023 s-10.362,29.328-24.666,34.023c3.509,1.152,7.25,1.783,11.139,1.783c19.744,0,35.805-16.062,35.805-35.806 C333.775,84.765,317.713,68.703,297.97,68.703z"/> <path style="fill:#ffddd2;" d="M381.513,194.574c-19.744,0-35.806,16.062-35.806,35.805c0,19.744,16.063,35.806,35.806,35.806 c19.744,0,35.805-16.062,35.805-35.806C417.318,210.636,401.255,194.574,381.513,194.574z"/> <path style="fill:#e29578;" d="M381.513,194.574c-3.889,0-7.63,0.632-11.139,1.783c14.305,4.695,24.666,18.168,24.666,34.023 c0,15.855-10.362,29.328-24.666,34.023c3.509,1.152,7.25,1.783,11.139,1.783c19.744,0,35.805-16.062,35.805-35.806 C417.318,210.636,401.255,194.574,381.513,194.574z"/> <path style="fill:#ffddd2;" d="M476.194,105.461c-19.744,0-35.806,16.062-35.806,35.805c0,19.744,16.063,35.806,35.806,35.806 c19.744,0,35.805-16.062,35.805-35.806C512,121.524,495.937,105.461,476.194,105.461z"/> <path style="fill:#e29578;" d="M476.194,105.461c-3.889,0-7.63,0.632-11.139,1.783c14.305,4.695,24.666,18.168,24.666,34.023 s-10.362,29.328-24.666,34.023c3.509,1.152,7.25,1.783,11.139,1.783c19.744,0,35.805-16.062,35.805-35.806 C512,121.524,495.937,105.461,476.194,105.461z"/> <path style="fill:#83c5be;" d="M84.797,333.812c-19.744,0-35.806,16.063-35.806,35.806c0,19.744,16.062,35.806,35.806,35.806 s35.805-16.063,35.805-35.806C120.602,349.874,104.539,333.812,84.797,333.812z"/> <path style="fill:#006d77;" d="M84.797,333.812c-3.683,0-7.236,0.56-10.582,1.597c14.593,4.524,25.223,18.148,25.223,34.209 s-10.63,29.686-25.223,34.209c3.346,1.037,6.9,1.597,10.582,1.597c19.744,0,35.805-16.063,35.805-35.806 C120.602,349.874,104.539,333.812,84.797,333.812z"/> <path style="fill:#83c5be;" d="M164.301,409.557c-19.744,0-35.806,16.063-35.806,35.806c0,19.744,16.062,35.806,35.806,35.806 s35.806-16.063,35.806-35.806C200.108,425.619,184.044,409.557,164.301,409.557z"/> <path style="fill:#006d77;" d="M164.301,409.557c-3.889,0-7.63,0.632-11.139,1.783c14.305,4.695,24.667,18.168,24.667,34.023 c0,15.855-10.362,29.328-24.667,34.023c3.509,1.152,7.25,1.783,11.139,1.783c19.744,0,35.806-16.063,35.806-35.806 C200.108,425.62,184.044,409.557,164.301,409.557z"/> <path style="fill:#83c5be;" d="M309.109,296.016c-19.744,0-35.806,16.063-35.806,35.806c0,19.744,16.062,35.806,35.806,35.806 c19.744,0,35.805-16.063,35.805-35.806C344.914,312.078,328.852,296.016,309.109,296.016z"/> <path style="fill:#006d77;" d="M309.109,296.016c-3.889,0-7.63,0.632-11.139,1.783c14.305,4.695,24.666,18.168,24.666,34.023 c0,15.855-10.362,29.328-24.666,34.023c3.509,1.152,7.25,1.783,11.139,1.783c19.744,0,35.805-16.063,35.805-35.806 C344.914,312.078,328.852,296.016,309.109,296.016z"/> <path style="fill:#83c5be;" d="M476.194,403.987c-19.744,0-35.806,16.063-35.806,35.806c0,19.744,16.063,35.806,35.806,35.806 c19.744,0,35.805-16.063,35.805-35.806C512,420.05,495.937,403.987,476.194,403.987z"/> <path style="fill:#006d77;" d="M476.194,403.987c-4.096,0-8.028,0.701-11.696,1.972c14.015,4.859,24.109,18.186,24.109,33.834 c0,15.648-10.094,28.975-24.109,33.834c3.668,1.272,7.6,1.972,11.696,1.972c19.744,0,35.805-16.063,35.805-35.806 S495.937,403.987,476.194,403.987z"/> <path style="fill:#83c5be08080;" d="M497.358,509.413H8.355c-4.614,0-8.354-3.74-8.354-8.354V10.941c0-4.614,3.74-8.354,8.354-8.354 s8.354,3.74,8.354,8.354v481.763h480.649c4.614,0,8.354,3.74,8.354,8.354C505.713,505.672,501.972,509.413,497.358,509.413z"/> </g>

</svg>