<?xml version="1.0" standalone="no"?>
<!DOCTYPE svg PUBLIC "-//W3C//DTD SVG 1.0//EN" "http://www.w3.org/TR/2001/REC-SVG-20010904/DTD/svg10.dtd">
<svg xmlns="http://www.w3.org/2000/svg" xmlns:xlink="http://www.w3.org/1999/xlink" id="body_1" width="31" height="23">

<g transform="matrix(0.63888896 0 0 0.63888896 0.16666695 -3.8333335)">
    <path d="M42 37C 42 39.762 39.762 42 37 42L37 42L11 42C 8.239 42 6 39.762 6 37L6 37L6 11C 6 8.238 8.239 6 11 6L11 6L37 6C 39.762 6 42 8.238 42 11L42 11L42 37z" stroke="none" fill="#0288D1" fill-rule="nonzero" />
	<g>
        <path d="M12 19L17 19L17 36L12 36z" stroke="none" fill="#FFFFFF" fill-rule="nonzero" />
        <path d="M14.485 17L14.457 17C 12.965 17 12 15.888 12 14.499C 12 13.08 12.995 12 14.514 12C 16.035 12 16.972 13.08 17 14.499001C 17 15.887 16.035 17 14.485 17z" stroke="none" fill="#FFFFFF" fill-rule="nonzero" />
        <path d="M36 36L31 36L31 26.901001C 31 24.703001 29.775 23.203001 27.808 23.203001C 26.307001 23.203001 25.495 24.215 25.101 25.193C 24.957 25.543 25 26.511 25 27L25 27L25 36L20 36L20 19L25 19L25 21.616C 25.721 20.5 26.85 19 29.738 19C 33.316 19 35.999 21.25 35.999 26.274L35.999 26.274L36 36z" stroke="none" fill="#FFFFFF" fill-rule="nonzero" />
	</g>
</g>
</svg>