<!DOCTYPE svg PUBLIC "-//W3C//DTD SVG 1.1//EN" "http://www.w3.org/Graphics/SVG/1.1/DTD/svg11.dtd">

<!-- Uploaded to: SVG Repo, www.svgrepo.com, Transformed by: SVG Repo Mixer Tools -->
<svg fill="#000000" width="5rem" height="5rem" viewBox="0 0 24 24" id="chart-line-alt-1" data-name="Flat Color" xmlns="http://www.w3.org/2000/svg" class="icon flat-color">

<g id="SVGRepo_bgCarrier" stroke-width="0"/>

<g id="SVGRepo_tracerCarrier" stroke-linecap="round" stroke-linejoin="round"/>

<g id="SVGRepo_iconCarrier">

<path id="secondary" d="M21.5,6a1.5,1.5,0,0,0-3,0,1.41,1.41,0,0,0,.11.54l-3,5.94-3-2.28a1,1,0,0,0-1.31.09l-5,5a1,1,0,0,0,0,1.42,1,1,0,0,0,1.42,0l4.38-4.39L15.4,14.8a1,1,0,0,0,.83.17,1,1,0,0,0,.66-.52l3.5-7A1.49,1.49,0,0,0,21.5,6Z" style="fill: #6fcdec;"/>

<path id="primary" d="M21,22H3a1,1,0,0,1-1-1V3A1,1,0,0,1,4,3V20H21a1,1,0,0,1,0,2Z" style="fill: #000000;"/>

</g>

</svg>