<!DOCTYPE svg PUBLIC "-//W3C//DTD SVG 1.1//EN" "http://www.w3.org/Graphics/SVG/1.1/DTD/svg11.dtd">

<!-- Uploaded to: SVG Repo, www.svgrepo.com, Transformed by: SVG Repo Mixer Tools -->
<svg version="1.1" id="Layer_1" xmlns="http://www.w3.org/2000/svg" xmlns:xlink="http://www.w3.org/1999/xlink" viewBox="0 0 491.52 491.52" xml:space="preserve" width="5rem" height="5rem" fill="#006d77" stroke="#006d77">

<g id="SVGRepo_bgCarrier" stroke-width="0"/>

<g id="SVGRepo_tracerCarrier" stroke-linecap="round" stroke-linejoin="round"/>

<g id="SVGRepo_iconCarrier"> <ellipse style="opacity:0.5;fill:#83c5be;enable-background:new ;" cx="158.537" cy="158.536" rx="129.777" ry="129.777"/> <path style="opacity:0.5;fill:#FFFFFF;enable-background:new ;" d="M98.081,234.62c-43.316-43.315-43.882-112.979-1.264-155.595 c9.509-9.511,20.41-16.745,32.021-21.96c-16.497,4.812-32.056,13.702-45.064,26.71c-41.288,41.289-41.289,108.231,0,149.521 c18.282,18.281,41.596,28.431,65.483,30.523C130.561,258.986,112.79,249.33,98.081,234.62z"/> <path style="fill:#006d77;" d="M270.636,46.433c-61.912-61.912-162.291-61.911-224.202,0.001s-61.912,162.291-0.001,224.202 c57.054,57.054,146.703,61.394,208.884,13.294l14.18,14.182l28.615-28.613l-14.182-14.182 C332.029,193.137,327.69,103.487,270.636,46.433z M250.301,250.302c-50.681,50.681-132.852,50.681-183.534,0 c-50.68-50.681-50.68-132.852,0.002-183.533s132.85-50.681,183.531,0C300.982,117.45,300.982,199.621,250.301,250.302z"/> <path style="fill:#006d7706d77;" d="M305.823,258.865l-46.959,46.958c-2.669,2.67-2.669,6.996,0,9.665l174.339,174.338 c12.132,12.133,68.755-44.49,56.623-56.623L315.488,258.865C312.819,256.196,308.493,256.196,305.823,258.865z"/> <g> <rect x="409.379" y="442.628" transform="matrix(-0.7071 0.7071 -0.7071 -0.7071 1084.9951 449.4294)" style="fill:#Edf6f9;" width="80.077" height="13.594"/> <rect x="260.671" y="293.889" transform="matrix(-0.7071 0.7071 -0.7071 -0.7071 725.9606 300.6683)" style="fill:#Edf6f9;" width="80.077" height="13.594"/> </g> </g>

</svg>